<svg width="198" height="100" viewBox="0 0 198 100" fill="none" xmlns="http://www.w3.org/2000/svg">
<g filter="url(#filter0_d_46_10)">
<rect x="25" y="15" width="147.826" height="50" rx="4" fill="#49A26C"/>
</g>
<path d="M45.56 44.105C44.86 44.105 44.23 43.985 43.67 43.745C43.11 43.495 42.67 43.145 42.35 42.695C42.03 42.245 41.87 41.72 41.87 41.12H43.7C43.74 41.57 43.915 41.94 44.225 42.23C44.545 42.52 44.99 42.665 45.56 42.665C46.15 42.665 46.61 42.525 46.94 42.245C47.27 41.955 47.435 41.585 47.435 41.135C47.435 40.785 47.33 40.5 47.12 40.28C46.92 40.06 46.665 39.89 46.355 39.77C46.055 39.65 45.635 39.52 45.095 39.38C44.415 39.2 43.86 39.02 43.43 38.84C43.01 38.65 42.65 38.36 42.35 37.97C42.05 37.58 41.9 37.06 41.9 36.41C41.9 35.81 42.05 35.285 42.35 34.835C42.65 34.385 43.07 34.04 43.61 33.8C44.15 33.56 44.775 33.44 45.485 33.44C46.495 33.44 47.32 33.695 47.96 34.205C48.61 34.705 48.97 35.395 49.04 36.275H47.15C47.12 35.895 46.94 35.57 46.61 35.3C46.28 35.03 45.845 34.895 45.305 34.895C44.815 34.895 44.415 35.02 44.105 35.27C43.795 35.52 43.64 35.88 43.64 36.35C43.64 36.67 43.735 36.935 43.925 37.145C44.125 37.345 44.375 37.505 44.675 37.625C44.975 37.745 45.385 37.875 45.905 38.015C46.595 38.205 47.155 38.395 47.585 38.585C48.025 38.775 48.395 39.07 48.695 39.47C49.005 39.86 49.16 40.385 49.16 41.045C49.16 41.575 49.015 42.075 48.725 42.545C48.445 43.015 48.03 43.395 47.48 43.685C46.94 43.965 46.3 44.105 45.56 44.105ZM53.1727 37.13V41.705C53.1727 42.015 53.2427 42.24 53.3827 42.38C53.5327 42.51 53.7827 42.575 54.1327 42.575H55.1827V44H53.8327C53.0627 44 52.4727 43.82 52.0627 43.46C51.6527 43.1 51.4477 42.515 51.4477 41.705V37.13H50.4727V35.735H51.4477V33.68H53.1727V35.735H55.1827V37.13H53.1727ZM56.1888 39.83C56.1888 39 56.3588 38.265 56.6988 37.625C57.0488 36.985 57.5188 36.49 58.1088 36.14C58.7088 35.78 59.3688 35.6 60.0888 35.6C60.7388 35.6 61.3038 35.73 61.7838 35.99C62.2738 36.24 62.6638 36.555 62.9538 36.935V35.735H64.6788V44H62.9538V42.77C62.6638 43.16 62.2688 43.485 61.7688 43.745C61.2688 44.005 60.6988 44.135 60.0588 44.135C59.3488 44.135 58.6988 43.955 58.1088 43.595C57.5188 43.225 57.0488 42.715 56.6988 42.065C56.3588 41.405 56.1888 40.66 56.1888 39.83ZM62.9538 39.86C62.9538 39.29 62.8338 38.795 62.5938 38.375C62.3638 37.955 62.0588 37.635 61.6788 37.415C61.2988 37.195 60.8888 37.085 60.4488 37.085C60.0088 37.085 59.5988 37.195 59.2188 37.415C58.8388 37.625 58.5288 37.94 58.2888 38.36C58.0588 38.77 57.9438 39.26 57.9438 39.83C57.9438 40.4 58.0588 40.9 58.2888 41.33C58.5288 41.76 58.8388 42.09 59.2188 42.32C59.6088 42.54 60.0188 42.65 60.4488 42.65C60.8888 42.65 61.2988 42.54 61.6788 42.32C62.0588 42.1 62.3638 41.78 62.5938 41.36C62.8338 40.93 62.9538 40.43 62.9538 39.86ZM68.6348 36.935C68.8848 36.515 69.2148 36.19 69.6248 35.96C70.0448 35.72 70.5398 35.6 71.1098 35.6V37.37H70.6748C70.0048 37.37 69.4948 37.54 69.1448 37.88C68.8048 38.22 68.6348 38.81 68.6348 39.65V44H66.9248V35.735H68.6348V36.935ZM74.6766 37.13V41.705C74.6766 42.015 74.7466 42.24 74.8866 42.38C75.0366 42.51 75.2866 42.575 75.6366 42.575H76.6866V44H75.3366C74.5666 44 73.9766 43.82 73.5666 43.46C73.1566 43.1 72.9516 42.515 72.9516 41.705V37.13H71.9766V35.735H72.9516V33.68H74.6766V35.735H76.6866V37.13H74.6766ZM87.7657 34.955V38.015H91.3657V39.41H87.7657V42.605H91.8157V44H86.0557V33.56H91.8157V34.955H87.7657ZM96.9219 44.135C96.2719 44.135 95.6869 44.02 95.1669 43.79C94.6569 43.55 94.2519 43.23 93.9519 42.83C93.6519 42.42 93.4919 41.965 93.4719 41.465H95.2419C95.2719 41.815 95.4369 42.11 95.7369 42.35C96.0469 42.58 96.4319 42.695 96.8919 42.695C97.3719 42.695 97.7419 42.605 98.0019 42.425C98.2719 42.235 98.4069 41.995 98.4069 41.705C98.4069 41.395 98.2569 41.165 97.9569 41.015C97.6669 40.865 97.2019 40.7 96.5619 40.52C95.9419 40.35 95.4369 40.185 95.0469 40.025C94.6569 39.865 94.3169 39.62 94.0269 39.29C93.7469 38.96 93.6069 38.525 93.6069 37.985C93.6069 37.545 93.7369 37.145 93.9969 36.785C94.2569 36.415 94.6269 36.125 95.1069 35.915C95.5969 35.705 96.1569 35.6 96.7869 35.6C97.7269 35.6 98.4819 35.84 99.0519 36.32C99.6319 36.79 99.9419 37.435 99.9819 38.255H98.2719C98.2419 37.885 98.0919 37.59 97.8219 37.37C97.5519 37.15 97.1869 37.04 96.7269 37.04C96.2769 37.04 95.9319 37.125 95.6919 37.295C95.4519 37.465 95.3319 37.69 95.3319 37.97C95.3319 38.19 95.4119 38.375 95.5719 38.525C95.7319 38.675 95.9269 38.795 96.1569 38.885C96.3869 38.965 96.7269 39.07 97.1769 39.2C97.7769 39.36 98.2669 39.525 98.6469 39.695C99.0369 39.855 99.3719 40.095 99.6519 40.415C99.9319 40.735 100.077 41.16 100.087 41.69C100.087 42.16 99.9569 42.58 99.6969 42.95C99.4369 43.32 99.0669 43.61 98.5869 43.82C98.1169 44.03 97.5619 44.135 96.9219 44.135ZM103.93 37.13V41.705C103.93 42.015 104 42.24 104.14 42.38C104.29 42.51 104.54 42.575 104.89 42.575H105.94V44H104.59C103.82 44 103.23 43.82 102.82 43.46C102.41 43.1 102.205 42.515 102.205 41.705V37.13H101.23V35.735H102.205V33.68H103.93V35.735H105.94V37.13H103.93ZM108.386 34.64C108.076 34.64 107.816 34.535 107.606 34.325C107.396 34.115 107.291 33.855 107.291 33.545C107.291 33.235 107.396 32.975 107.606 32.765C107.816 32.555 108.076 32.45 108.386 32.45C108.686 32.45 108.941 32.555 109.151 32.765C109.361 32.975 109.466 33.235 109.466 33.545C109.466 33.855 109.361 34.115 109.151 34.325C108.941 34.535 108.686 34.64 108.386 34.64ZM109.226 35.735V44H107.516V35.735H109.226ZM121.476 35.6C122.126 35.6 122.706 35.735 123.216 36.005C123.736 36.275 124.141 36.675 124.431 37.205C124.731 37.735 124.881 38.375 124.881 39.125V44H123.186V39.38C123.186 38.64 123.001 38.075 122.631 37.685C122.261 37.285 121.756 37.085 121.116 37.085C120.476 37.085 119.966 37.285 119.586 37.685C119.216 38.075 119.031 38.64 119.031 39.38V44H117.336V39.38C117.336 38.64 117.151 38.075 116.781 37.685C116.411 37.285 115.906 37.085 115.266 37.085C114.626 37.085 114.116 37.285 113.736 37.685C113.366 38.075 113.181 38.64 113.181 39.38V44H111.471V35.735H113.181V36.68C113.461 36.34 113.816 36.075 114.246 35.885C114.676 35.695 115.136 35.6 115.626 35.6C116.286 35.6 116.876 35.74 117.396 36.02C117.916 36.3 118.316 36.705 118.596 37.235C118.846 36.735 119.236 36.34 119.766 36.05C120.296 35.75 120.866 35.6 121.476 35.6ZM126.487 39.83C126.487 39 126.657 38.265 126.997 37.625C127.347 36.985 127.817 36.49 128.407 36.14C129.007 35.78 129.667 35.6 130.387 35.6C131.037 35.6 131.602 35.73 132.082 35.99C132.572 36.24 132.962 36.555 133.252 36.935V35.735H134.977V44H133.252V42.77C132.962 43.16 132.567 43.485 132.067 43.745C131.567 44.005 130.997 44.135 130.357 44.135C129.647 44.135 128.997 43.955 128.407 43.595C127.817 43.225 127.347 42.715 126.997 42.065C126.657 41.405 126.487 40.66 126.487 39.83ZM133.252 39.86C133.252 39.29 133.132 38.795 132.892 38.375C132.662 37.955 132.357 37.635 131.977 37.415C131.597 37.195 131.187 37.085 130.747 37.085C130.307 37.085 129.897 37.195 129.517 37.415C129.137 37.625 128.827 37.94 128.587 38.36C128.357 38.77 128.242 39.26 128.242 39.83C128.242 40.4 128.357 40.9 128.587 41.33C128.827 41.76 129.137 42.09 129.517 42.32C129.907 42.54 130.317 42.65 130.747 42.65C131.187 42.65 131.597 42.54 131.977 42.32C132.357 42.1 132.662 41.78 132.892 41.36C133.132 40.93 133.252 40.43 133.252 39.86ZM139.218 37.13V41.705C139.218 42.015 139.288 42.24 139.428 42.38C139.578 42.51 139.828 42.575 140.178 42.575H141.228V44H139.878C139.108 44 138.518 43.82 138.108 43.46C137.698 43.1 137.493 42.515 137.493 41.705V37.13H136.518V35.735H137.493V33.68H139.218V35.735H141.228V37.13H139.218ZM150.379 39.665C150.379 39.975 150.359 40.255 150.319 40.505H144.004C144.054 41.165 144.299 41.695 144.739 42.095C145.179 42.495 145.719 42.695 146.359 42.695C147.279 42.695 147.929 42.31 148.309 41.54H150.154C149.904 42.3 149.449 42.925 148.789 43.415C148.139 43.895 147.329 44.135 146.359 44.135C145.569 44.135 144.859 43.96 144.229 43.61C143.609 43.25 143.119 42.75 142.759 42.11C142.409 41.46 142.234 40.71 142.234 39.86C142.234 39.01 142.404 38.265 142.744 37.625C143.094 36.975 143.579 36.475 144.199 36.125C144.829 35.775 145.549 35.6 146.359 35.6C147.139 35.6 147.834 35.77 148.444 36.11C149.054 36.45 149.529 36.93 149.869 37.55C150.209 38.16 150.379 38.865 150.379 39.665ZM148.594 39.125C148.584 38.495 148.359 37.99 147.919 37.61C147.479 37.23 146.934 37.04 146.284 37.04C145.694 37.04 145.189 37.23 144.769 37.61C144.349 37.98 144.099 38.485 144.019 39.125H148.594Z" fill="white"/>
<defs>
<filter id="filter0_d_46_10" x="0" y="0" width="197.826" height="100" filterUnits="userSpaceOnUse" color-interpolation-filters="sRGB">
<feFlood flood-opacity="0" result="BackgroundImageFix"/>
<feColorMatrix in="SourceAlpha" type="matrix" values="0 0 0 0 0 0 0 0 0 0 0 0 0 0 0 0 0 0 127 0" result="hardAlpha"/>
<feOffset dy="10"/>
<feGaussianBlur stdDeviation="12.5"/>
<feColorMatrix type="matrix" values="0 0 0 0 0.23309 0 0 0 0 0.570833 0 0 0 0 0.367532 0 0 0 0.15 0"/>
<feBlend mode="normal" in2="BackgroundImageFix" result="effect1_dropShadow_46_10"/>
<feBlend mode="normal" in="SourceGraphic" in2="effect1_dropShadow_46_10" result="shape"/>
</filter>
</defs>
</svg>
